<svg width="50" height="50" viewBox="0 0 50 50" fill="none" xmlns="http://www.w3.org/2000/svg">
<path d="M4.16797 14.1673C4.16797 12.3264 5.66035 10.834 7.5013 10.834H42.5013C44.3423 10.834 45.8346 12.3264 45.8346 14.1673V35.834C45.8346 37.6749 44.3423 39.1673 42.5013 39.1673H7.5013C5.66035 39.1673 4.16797 37.6749 4.16797 35.834V14.1673Z" fill="#016FD0"/>
<path fill-rule="evenodd" clip-rule="evenodd" d="M15.2427 20.7227V29.8214H17.5174V23.1171L19.9353 29.8214H21.9302L24.3414 23.1171V29.8214H26.6161V20.7227H23.0245L20.9691 26.6024L18.8633 20.7361L15.2427 20.7227ZM4.18359 29.8229L8.09694 20.7242H11.0637L14.9733 29.8229H12.3694L11.6511 28.0009H7.45344L6.73138 29.8229H4.18359ZM10.8243 26.0256L9.5448 22.8418L8.26155 26.0256H10.8243ZM28.1444 29.8214V20.7227H35.5671V22.7579H30.443V24.3143H35.4473V26.2298H30.443V27.846H35.5671V29.8214H28.1444ZM39.4692 25.3281L35.8551 29.8214H38.6798L40.7674 27.0192L42.907 29.8214H45.7723L42.1516 25.272L45.8031 20.7227H43.0495L40.8385 23.5697L38.6349 20.7227H35.7691L39.4692 25.3281Z" fill="#016FD0"/>
<path d="M9.54414 22.8427L8.2609 26.0265H10.8237L9.54414 22.8427Z" fill="white"/>
<path fill-rule="evenodd" clip-rule="evenodd" d="M4.16797 31.3757H7.78498L8.50704 29.5537H10.5942L11.3125 31.3757H17.3285L17.3279 31.3742H39.4582L40.782 29.5972L42.1388 31.3742H45.8346V27.4094L44.1376 25.2771L45.8346 23.1627V19.1718H42.2892L40.8399 21.038L39.3955 19.1718H21.9224L20.949 21.9562L19.9558 19.1893L13.6902 19.166V22.9084L12.0853 19.1733H7.07445L4.16797 25.931V31.3757ZM14.9727 29.8239H12.3688L11.6505 28.0019H7.45279L6.73073 29.8239H4.18294L8.09628 20.7252H11.0631L14.9727 29.8239ZM15.242 29.8223H17.5167V23.118L19.9347 29.8223H21.9296L24.3408 23.118V29.8223H26.6154V20.7236H23.0238L20.9684 26.6033L18.8626 20.7371L15.242 20.7236V29.8223ZM28.1438 20.7236V29.8223H35.5664V27.847H30.4424V26.2307H35.4467V24.3152H30.4424V22.7589H35.5664V20.7236H28.1438ZM39.4685 25.3291L35.8545 29.8223H38.6791L40.7667 27.0201L42.9063 29.8223H45.7717L42.151 25.273L45.8024 20.7236H43.0489L40.8378 23.5707L38.6342 20.7236H35.7684L39.4685 25.3291Z" fill="white"/>
</svg>
