<?xml version="1.0" encoding="utf-8"?>
<!-- Generator: Adobe Illustrator 25.4.1, SVG Export Plug-In . SVG Version: 6.00 Build 0)  -->
<svg version="1.1" id="Layer_1" xmlns="http://www.w3.org/2000/svg" xmlns:xlink="http://www.w3.org/1999/xlink" x="0px" y="0px"
	 viewBox="0 0 150 166.5" style="enable-background:new 0 0 150 166.5;" xml:space="preserve">
<style type="text/css">
	.st0{display:none;}
	.st1{display:inline;}
	.st2{clip-path:url(#SVGID_00000037689552087543170590000015391499795317118084_);}
	.st3{fill:#FFFFFF;}
</style>
<g class="st0">
	<g class="st1">
		<defs>
			<rect id="SVGID_1_" x="2.9" y="2.1" width="145.5" height="161.3"/>
		</defs>
		<clipPath id="SVGID_00000157286315439751408170000017721680191457926568_">
			<use xlink:href="#SVGID_1_"  style="overflow:visible;"/>
		</clipPath>
		<g style="clip-path:url(#SVGID_00000157286315439751408170000017721680191457926568_);">
			
				<image style="overflow:visible;enable-background:new    ;" width="634" height="703" xlink:href="681E6383.png"  transform="matrix(0.2294 0 0 0.2294 2.92 2.0701)">
			</image>
		</g>
	</g>
</g>
<g>
	<path class="st3" d="M64.6,60.2c0-4.2-0.8-9.1-7.5-9.1h-7.6c-0.2,0-0.3,0.1-0.3,0.3v29.2c0,0.2,0.1,0.3,0.3,0.3h4.9
		c0.2,0,0.3-0.1,0.3-0.3V69.2h2.4C63.8,69.2,64.6,64.4,64.6,60.2 M54.8,64.5v-8.8h2c2.1,0,2.5,1.1,2.5,4.4c0,3.3-0.4,4.4-2.5,4.4
		H54.8z"/>
	<path class="st3" d="M80.8,56c0.2,0,0.3-0.1,0.3-0.3v-4.3c0-0.2-0.1-0.3-0.3-0.3H68.3c-0.2,0-0.3,0.1-0.3,0.3v29.2
		c0,0.2,0.1,0.3,0.3,0.3h12.8c0.2,0,0.3-0.1,0.3-0.3v-4.3c0-0.2-0.1-0.3-0.3-0.3h-7.7v-8.1h5.4c0.2,0,0.3-0.1,0.3-0.3v-4.1
		c0-0.2-0.1-0.3-0.3-0.3h-5.4V56H80.8z"/>
	<path class="st3" d="M99.7,51.1h-15c-0.2,0-0.3,0.1-0.3,0.3v4.3c0,0.2,0.1,0.3,0.3,0.3h4.8v24.6c0,0.2,0.1,0.3,0.3,0.3h4.8
		c0.2,0,0.3-0.1,0.3-0.3V56.1h4.8c0.2,0,0.3-0.1,0.3-0.3v-4.3C100,51.2,99.9,51.1,99.7,51.1"/>
	<path class="st3" d="M36.3,98H41c0.2,0,0.3-0.1,0.3-0.3v-4.3c0-4.6-2.8-7.4-7.4-7.4c-4.6,0-7.7,3-7.7,7.5v15.8
		c0,4.5,3.1,7.5,7.7,7.5c4.5,0,7.4-2.8,7.4-7.4v-4.6c0-0.2-0.1-0.3-0.3-0.3h-4.7c-0.2,0-0.3,0.1-0.3,0.3v4.7c0,1.6-0.6,2.4-2,2.4
		c-1.6,0-2.2-0.8-2.2-2.5v-16c0-1.7,0.7-2.5,2.2-2.5c1.4,0,2,0.8,2,2.4v4.4C36,97.8,36.2,98,36.3,98"/>
	<path class="st3" d="M51.2,116V86.8c0-0.2-0.1-0.3-0.3-0.3h-4.8c-0.2,0-0.3,0.1-0.3,0.3V116c0,0.2,0.1,0.3,0.3,0.3h4.8
		C51.1,116.3,51.2,116.2,51.2,116"/>
	<path class="st3" d="M65.9,116.3h4.7c0.1,0,0.2,0,0.2-0.1c0.1-0.1,0.1-0.2,0-0.3l-3.7-12.6c2.6-1.3,3.5-3.3,3.5-7.8
		c0-4.5-0.8-9.1-7.1-9.1H56c-0.2,0-0.3,0.1-0.3,0.3V116c0,0.2,0.1,0.3,0.3,0.3h4.9c0.2,0,0.3-0.1,0.3-0.3v-11.8h1.2l3.3,11.9
		C65.6,116.2,65.7,116.3,65.9,116.3 M62.7,99.7h-1.6v-8.5h1.6c1.9,0,2.5,0.6,2.5,4.3C65.2,99,64.6,99.7,62.7,99.7"/>
	<path class="st3" d="M88.9,109v-4.6c0-0.2-0.1-0.3-0.3-0.3h-4.7c-0.2,0-0.3,0.1-0.3,0.3v4.7c0,1.6-0.6,2.4-2,2.4
		c-1.6,0-2.2-0.8-2.2-2.5V93c0-1.7,0.7-2.5,2.2-2.5c1.4,0,2,0.8,2,2.4v4.4c0,0.2,0.1,0.3,0.3,0.3h4.7c0.2,0,0.3-0.1,0.3-0.3V93
		c0-4.6-2.8-7.4-7.4-7.4c-4.6,0-7.7,3-7.7,7.5v15.8c0,4.5,3.1,7.5,7.7,7.5C86.1,116.4,88.9,113.5,88.9,109"/>
	<path class="st3" d="M106.1,115.6v-4.3c0-0.2-0.1-0.3-0.3-0.3h-7V86.4c0-0.2-0.1-0.3-0.3-0.3h-4.8c-0.2,0-0.3,0.1-0.3,0.3v29.2
		c0,0.2,0.1,0.3,0.3,0.3h12.1C106,115.9,106.1,115.8,106.1,115.6"/>
	<path class="st3" d="M122.4,90.9c0.2,0,0.3-0.1,0.3-0.3v-4.3c0-0.2-0.1-0.3-0.3-0.3h-12.5c-0.2,0-0.3,0.1-0.3,0.3v29.2
		c0,0.2,0.1,0.3,0.3,0.3h12.8c0.2,0,0.3-0.1,0.3-0.3v-4.3c0-0.2-0.1-0.3-0.3-0.3H115v-8.1h5.4c0.2,0,0.3-0.1,0.3-0.3v-4.1
		c0-0.2-0.1-0.3-0.3-0.3H115v-7.2H122.4z"/>
	<path class="st3" d="M53.1,127.6h2.3c0.1,0,0.1-0.1,0.1-0.1v-2.1c0-2.2-1.4-3.6-3.6-3.6c-2.2,0-3.7,1.5-3.7,3.7v7.7
		c0,2.2,1.5,3.7,3.7,3.7c2.2,0,3.6-1.4,3.6-3.6v-2.2c0-0.1-0.1-0.1-0.1-0.1h-2.3c-0.1,0-0.1,0.1-0.1,0.1v2.3c0,0.8-0.3,1.2-1,1.2
		c-0.8,0-1.1-0.4-1.1-1.2v-7.8c0-0.8,0.3-1.2,1.1-1.2c0.7,0,1,0.4,1,1.2v2.1C53,127.5,53.1,127.6,53.1,127.6"/>
	<path class="st3" d="M57.3,125.4v7.7c0,2.2,1.5,3.7,3.7,3.7c2.3,0,3.7-1.4,3.7-3.7v-7.7c0-2.2-1.5-3.7-3.7-3.7
		C58.7,121.8,57.3,123.2,57.3,125.4 M62,125.3v7.8c0,0.8-0.3,1.2-1.1,1.2c-0.7,0-1.1-0.4-1.1-1.2v-7.8c0-0.8,0.3-1.2,1.1-1.2
		C61.7,124.1,62,124.5,62,125.3"/>
	<path class="st3" d="M74,136.5h2.1c0.1,0,0.1-0.1,0.1-0.1v-14.2c0-0.1-0.1-0.1-0.1-0.1H73c-0.1,0-0.1,0.1-0.1,0.1l-1.5,8.1
		l-1.5-8.1c0-0.1-0.1-0.1-0.1-0.1h-3.1c-0.1,0-0.1,0.1-0.1,0.1v14.2c0,0.1,0.1,0.1,0.1,0.1h2.1c0.1,0,0.1-0.1,0.1-0.1v-9.1l1.7,9.1
		c0,0.1,0.1,0.1,0.1,0.1H72c0.1,0,0.1-0.1,0.1-0.1l1.7-9.2v9.2C73.9,136.4,73.9,136.5,74,136.5"/>
	<path class="st3" d="M43,134.7c0,1,0.8,1.8,1.8,1.8c1,0,1.8-0.8,1.8-1.8s-0.8-1.8-1.8-1.8C43.8,132.8,43,133.7,43,134.7"/>
	<path class="st3" d="M78.5,134.7c0,1,0.8,1.8,1.8,1.8c1,0,1.8-0.8,1.8-1.8s-0.8-1.8-1.8-1.8C79.3,132.8,78.5,133.7,78.5,134.7"/>
	<path class="st3" d="M84.3,136.5h2.3c0.1,0,0.1-0.1,0.1-0.1l0.4-2.8h2.1l0.4,2.8c0,0.1,0.1,0.1,0.1,0.1h2.3c0,0,0.1,0,0.1-0.1
		c0,0,0-0.1,0-0.1l-2.5-14.2c0-0.1-0.1-0.1-0.1-0.1h-2.8c-0.1,0-0.1,0.1-0.1,0.1l-2.5,14.2c0,0,0,0.1,0,0.1
		C84.2,136.5,84.3,136.5,84.3,136.5 M88.2,126.5l0.7,4.7h-1.4L88.2,126.5z"/>
	<path class="st3" d="M96,122h-2.4c-0.1,0-0.1,0.1-0.1,0.1v10.9c0,2.2,1.5,3.7,3.7,3.7c2.3,0,3.7-1.4,3.7-3.7v-10.9
		c0-0.1-0.1-0.1-0.1-0.1h-2.4c-0.1,0-0.1,0.1-0.1,0.1v11c0,0.8-0.3,1.2-1.1,1.2c-0.7,0-1.1-0.4-1.1-1.2v-11
		C96.2,122.1,96.1,122,96,122"/>
	<path class="st3" d="M75,8.7c5.8,0,10.5,5.6,10.9,12.6c-3.6-0.6-7.2-0.9-10.9-0.9c-3.7,0-7.4,0.3-10.9,0.9
		C64.5,14.3,69.2,8.7,75,8.7 M91.8,22.5C91.8,22.5,91.8,22.5,91.8,22.5c0,2-0.3,3.9-0.8,5.8c27.9,7.2,48.6,32.5,48.6,62.6
		c0,35.6-29,64.6-64.6,64.6c-35.6,0-64.6-29-64.6-64.6s29-64.6,64.6-64.6c3.5,0,7,0.3,10.3,0.8c0,0.2-0.1,0.3-0.1,0.5
		c-1.1,3.5-3.4,6.4-6.2,7.7c-0.8-1.3-2.2-2.2-3.8-2.2c-2.5,0-4.4,2-4.4,4.4c0,2.5,2,4.4,4.4,4.4c1.3,0,2.6-0.6,3.4-1.5
		c-1.2,0-2.5-0.2-3.7-0.6c-0.3-0.1-0.5-0.2-0.8-0.3c0.4,0,0.8,0.1,1.1,0.1c4.2,0,8-2.2,10.6-5.7c0,0,0,0,0,0c1.8-2.5,3.1-5.6,3.5-9
		c0.5-4.4-0.4-9-2.8-12.8C84,8.1,79.8,5.2,75,5.2c-7.8,0-14.2,7.5-14.5,16.7c-31.9,6.7-56,35-56,68.9c0,38.8,31.6,70.4,70.4,70.4
		c38.8,0,70.4-31.6,70.4-70.4C145.4,57.8,122.5,30,91.8,22.5"/>
</g>
</svg>
