<svg width="50" height="50" viewBox="0 0 50 50" fill="none" xmlns="http://www.w3.org/2000/svg">
<path d="M4.16797 14.1673C4.16797 12.3264 5.66035 10.834 7.5013 10.834H42.5013C44.3423 10.834 45.8346 12.3264 45.8346 14.1673V35.834C45.8346 37.6749 44.3423 39.1673 42.5013 39.1673H7.5013C5.66035 39.1673 4.16797 37.6749 4.16797 35.834V14.1673Z" fill="#F5F6F8"/>
<path d="M28.1464 16.9766H21.832V28.4403H28.1464V16.9766Z" fill="#FF5A00"/>
<path d="M22.2525 22.7077C22.2525 20.3786 23.3361 18.3114 24.9987 16.9758C23.7751 16.0036 22.2315 15.416 20.5478 15.416C16.5593 15.416 13.332 18.6772 13.332 22.7077C13.332 26.7382 16.5593 29.9994 20.5478 29.9994C22.2315 29.9994 23.7751 29.4118 24.9987 28.4395C23.3337 27.1228 22.2525 25.0368 22.2525 22.7077Z" fill="#EB001B"/>
<path d="M36.6667 22.7077C36.6667 26.7382 33.4394 29.9994 29.4509 29.9994C27.7672 29.9994 26.2237 29.4118 25 28.4395C26.6837 27.1016 27.7462 25.0368 27.7462 22.7077C27.7462 20.3786 26.6627 18.3114 25 16.9758C26.2213 16.0036 27.7649 15.416 29.4486 15.416C33.4394 15.416 36.6667 18.6984 36.6667 22.7077Z" fill="#F79E1B"/>
<path d="M16.5002 34.9561V33.6288C16.5002 33.121 16.18 32.7886 15.6302 32.7886C15.3553 32.7886 15.0564 32.8762 14.8509 33.1649C14.6908 32.9226 14.4613 32.7886 14.117 32.7886C13.8875 32.7886 13.658 32.8556 13.4765 33.0978V32.8324H12.9961V34.9561H13.4765V33.7834C13.4765 33.4071 13.682 33.2293 14.0022 33.2293C14.3225 33.2293 14.4826 33.4277 14.4826 33.7834V34.9561H14.963V33.7834C14.963 33.4071 15.1925 33.2293 15.4888 33.2293C15.809 33.2293 15.9691 33.4277 15.9691 33.7834V34.9561H16.5002ZM23.6259 32.8324H22.8466V32.1906H22.3663V32.8324H21.9312V33.2525H22.3663V34.2267C22.3663 34.7138 22.5718 34.9999 23.1215 34.9999C23.327 34.9999 23.5565 34.9329 23.7167 34.8452L23.5779 34.4458C23.4391 34.5334 23.279 34.5566 23.1642 34.5566C22.9347 34.5566 22.844 34.4226 22.844 34.2035V33.2525H23.6233V32.8324H23.6259ZM27.7039 32.786C27.429 32.786 27.2448 32.92 27.1301 33.0953V32.8298H26.6497V34.9535H27.1301V33.7576C27.1301 33.4045 27.2902 33.2035 27.5891 33.2035C27.6798 33.2035 27.7946 33.2267 27.888 33.2473L28.0268 32.804C27.9307 32.786 27.7946 32.786 27.7039 32.786ZM21.5416 33.0076C21.3121 32.853 20.9918 32.786 20.6475 32.786C20.0978 32.786 19.7321 33.0515 19.7321 33.4716C19.7321 33.8246 20.007 34.0257 20.4874 34.0901L20.7169 34.1133C20.9678 34.1571 21.1066 34.2241 21.1066 34.3349C21.1066 34.4896 20.9224 34.6004 20.6022 34.6004C20.2819 34.6004 20.0284 34.4896 19.8683 34.3788L19.6387 34.7318C19.8896 34.9097 20.2339 34.9973 20.5782 34.9973C21.2187 34.9973 21.587 34.7087 21.587 34.3117C21.587 33.9355 21.2881 33.737 20.8317 33.67L20.6022 33.6468C20.3967 33.6236 20.2366 33.5798 20.2366 33.4484C20.2366 33.2937 20.3967 33.2061 20.6502 33.2061C20.9251 33.2061 21.2 33.3169 21.3388 33.3839L21.5416 33.0076ZM34.3225 32.786C34.0476 32.786 33.8635 32.92 33.7487 33.0953V32.8298H33.2683V34.9535H33.7487V33.7576C33.7487 33.4045 33.9088 33.2035 34.2077 33.2035C34.2985 33.2035 34.4132 33.2267 34.5066 33.2473L34.6454 32.8092C34.552 32.786 34.4159 32.786 34.3225 32.786ZM28.1842 33.8942C28.1842 34.536 28.6433 34.9999 29.3532 34.9999C29.6734 34.9999 29.903 34.9329 30.1325 34.7576L29.903 34.3813C29.7188 34.5154 29.5373 34.5798 29.3292 34.5798C28.9395 34.5798 28.6646 34.3143 28.6646 33.8942C28.6646 33.4947 28.9395 33.2293 29.3292 33.2087C29.5347 33.2087 29.7188 33.2757 29.903 33.4071L30.1325 33.0308C29.903 32.853 29.6734 32.7886 29.3532 32.7886C28.6433 32.786 28.1842 33.2525 28.1842 33.8942ZM32.6278 33.8942V32.8324H32.1474V33.0978C31.9873 32.8994 31.7578 32.7886 31.4589 32.7886C30.8397 32.7886 30.3593 33.2525 30.3593 33.8942C30.3593 34.536 30.8397 34.9999 31.4589 34.9999C31.7791 34.9999 32.0086 34.8891 32.1474 34.6906V34.9561H32.6278V33.8942ZM30.8637 33.8942C30.8637 33.5179 31.1146 33.2087 31.5283 33.2087C31.9179 33.2087 32.1928 33.4973 32.1928 33.8942C32.1928 34.2705 31.9179 34.5798 31.5283 34.5798C31.1173 34.5566 30.8637 34.2679 30.8637 33.8942ZM25.1151 32.786C24.4746 32.786 24.0156 33.2293 24.0156 33.8917C24.0156 34.5566 24.4746 34.9973 25.1391 34.9973C25.4594 34.9973 25.7797 34.9097 26.0332 34.7087L25.8037 34.3762C25.6195 34.5102 25.39 34.5978 25.1632 34.5978C24.8643 34.5978 24.568 34.4638 24.4986 34.0901H26.1239C26.1239 34.0231 26.1239 33.9793 26.1239 33.9123C26.1453 33.2293 25.7316 32.786 25.1151 32.786ZM25.1151 33.1855C25.414 33.1855 25.6195 33.3633 25.6649 33.6932H24.52C24.5653 33.4071 24.7708 33.1855 25.1151 33.1855ZM37.05 33.8942V31.9922H36.5696V33.0978C36.4095 32.8994 36.18 32.7886 35.8811 32.7886C35.2619 32.7886 34.7815 33.2525 34.7815 33.8942C34.7815 34.536 35.2619 34.9999 35.8811 34.9999C36.2013 34.9999 36.4308 34.8891 36.5696 34.6906V34.9561H37.05V33.8942ZM35.2859 33.8942C35.2859 33.5179 35.5368 33.2087 35.9505 33.2087C36.3401 33.2087 36.615 33.4973 36.615 33.8942C36.615 34.2705 36.3401 34.5798 35.9505 34.5798C35.5368 34.5566 35.2859 34.2679 35.2859 33.8942ZM19.2037 33.8942V32.8324H18.7233V33.0978C18.5632 32.8994 18.3337 32.7886 18.0348 32.7886C17.4156 32.7886 16.9352 33.2525 16.9352 33.8942C16.9352 34.536 17.4156 34.9999 18.0348 34.9999C18.355 34.9999 18.5846 34.8891 18.7233 34.6906V34.9561H19.2037V33.8942ZM17.4183 33.8942C17.4183 33.5179 17.6692 33.2087 18.0828 33.2087C18.4725 33.2087 18.7474 33.4973 18.7474 33.8942C18.7474 34.2705 18.4725 34.5798 18.0828 34.5798C17.6692 34.5566 17.4183 34.2679 17.4183 33.8942Z" fill="black"/>
</svg>
