<svg width="50" height="50" viewBox="0 0 50 50" fill="none" xmlns="http://www.w3.org/2000/svg">
<path d="M4.16797 14.1673C4.16797 12.3264 5.66035 10.834 7.5013 10.834H42.5013C44.3423 10.834 45.8346 12.3264 45.8346 14.1673V35.834C45.8346 37.6749 44.3423 39.1673 42.5013 39.1673H7.5013C5.66035 39.1673 4.16797 37.6749 4.16797 35.834V14.1673Z" fill="#F5F6F8"/>
<path d="M12.3394 20.834H9.74191C9.56417 20.834 9.41301 20.9631 9.38528 21.1386L8.33476 27.7991C8.31387 27.9305 8.41565 28.049 8.54896 28.049H9.78901C9.96675 28.049 10.1179 27.9199 10.1456 27.744L10.429 25.9476C10.4563 25.7718 10.6079 25.6426 10.7852 25.6426H11.6075C13.3185 25.6426 14.306 24.8147 14.5638 23.1739C14.6801 22.4561 14.5688 21.8921 14.2327 21.4971C13.8635 21.0634 13.2087 20.834 12.3394 20.834ZM12.639 23.2666C12.497 24.1986 11.7849 24.1986 11.0963 24.1986H10.7043L10.9793 22.458C10.9956 22.3528 11.0868 22.2753 11.1931 22.2753H11.3728C11.8418 22.2753 12.2843 22.2753 12.5129 22.5427C12.6493 22.7022 12.6911 22.9392 12.639 23.2666Z" fill="#253B80"/>
<path d="M20.1018 23.2361H18.858C18.752 23.2361 18.6605 23.3136 18.6442 23.4188L18.5891 23.7667L18.5021 23.6406C18.2328 23.2498 17.6324 23.1191 17.0331 23.1191C15.6586 23.1191 14.4846 24.1602 14.256 25.6205C14.1371 26.349 14.3061 27.0455 14.7193 27.5313C15.0984 27.9779 15.6407 28.164 16.286 28.164C17.3935 28.164 18.0076 27.4519 18.0076 27.4519L17.9522 27.7975C17.9313 27.9297 18.0331 28.0482 18.1656 28.0482H19.286C19.4641 28.0482 19.6145 27.919 19.6426 27.7432L20.3149 23.486C20.3362 23.355 20.2348 23.2361 20.1018 23.2361ZM18.368 25.657C18.248 26.3676 17.684 26.8446 16.9647 26.8446C16.6035 26.8446 16.3148 26.7288 16.1295 26.5092C15.9457 26.2912 15.8758 25.9809 15.9343 25.6353C16.0463 24.9308 16.6198 24.4382 17.3282 24.4382C17.6814 24.4382 17.9685 24.5555 18.1576 24.777C18.3472 25.0007 18.4224 25.3129 18.368 25.657Z" fill="#253B80"/>
<path d="M26.7288 23.2363H25.4789C25.3596 23.2363 25.2476 23.2956 25.18 23.3947L23.4561 25.934L22.7253 23.4938C22.6794 23.3412 22.5385 23.2363 22.379 23.2363H21.1507C21.0014 23.2363 20.8977 23.3822 20.9452 23.5227L22.322 27.563L21.0276 29.3902C20.9259 29.5342 21.0284 29.732 21.2042 29.732H22.4526C22.5711 29.732 22.682 29.6743 22.7493 29.5771L26.9066 23.5762C27.0061 23.4327 26.9039 23.2363 26.7288 23.2363Z" fill="#253B80"/>
<path d="M30.8667 20.834H28.2689C28.0915 20.834 27.9404 20.9631 27.9126 21.1386L26.8621 27.7991C26.8412 27.9305 26.943 28.049 27.0756 28.049H28.4086C28.5325 28.049 28.6384 27.9586 28.6578 27.8356L28.9559 25.9476C28.9833 25.7718 29.1348 25.6426 29.3122 25.6426H30.1341C31.8454 25.6426 32.8325 24.8147 33.0908 23.1739C33.2074 22.4561 33.0954 21.8921 32.7592 21.4971C32.3905 21.0634 31.7361 20.834 30.8667 20.834ZM31.1664 23.2666C31.0247 24.1986 30.3126 24.1986 29.6236 24.1986H29.2321L29.5074 22.458C29.5237 22.3528 29.6141 22.2753 29.7209 22.2753H29.9005C30.3692 22.2753 30.812 22.2753 31.0407 22.5427C31.177 22.7022 31.2184 22.9392 31.1664 23.2666Z" fill="#179BD7"/>
<path d="M38.6315 23.2361H37.3884C37.2816 23.2361 37.1909 23.3136 37.1749 23.4188L37.1199 23.7667L37.0325 23.6406C36.7632 23.2498 36.1631 23.1191 35.5638 23.1191C34.1893 23.1191 33.0157 24.1602 32.7871 25.6205C32.6686 26.349 32.8369 27.0455 33.2501 27.5313C33.6299 27.9779 34.1715 28.164 34.8168 28.164C35.9242 28.164 36.5384 27.4519 36.5384 27.4519L36.4829 27.7975C36.462 27.9297 36.5638 28.0482 36.6971 28.0482H37.8172C37.9945 28.0482 38.1457 27.919 38.1734 27.7432L38.846 23.486C38.8665 23.355 38.7648 23.2361 38.6315 23.2361ZM36.8977 25.657C36.7784 26.3676 36.2137 26.8446 35.4943 26.8446C35.1339 26.8446 34.8445 26.7288 34.6591 26.5092C34.4753 26.2912 34.4062 25.9809 34.4639 25.6353C34.5767 24.9308 35.1495 24.4382 35.8578 24.4382C36.211 24.4382 36.4981 24.5555 36.6873 24.777C36.8775 25.0007 36.9527 25.3129 36.8977 25.657Z" fill="#179BD7"/>
<path d="M40.0962 21.017L39.0301 27.7995C39.0092 27.9309 39.111 28.0494 39.2435 28.0494H40.3153C40.4934 28.0494 40.6446 27.9203 40.6719 27.7444L41.7232 21.0843C41.7441 20.9529 41.6423 20.834 41.5098 20.834H40.3096C40.2037 20.8344 40.1125 20.9118 40.0962 21.017Z" fill="#179BD7"/>
</svg>
