<svg width="50" height="50" viewBox="0 0 50 50" fill="none" xmlns="http://www.w3.org/2000/svg">
<path d="M4.16797 14.1673C4.16797 12.3264 5.66035 10.834 7.5013 10.834H42.5013C44.3423 10.834 45.8346 12.3264 45.8346 14.1673V35.834C45.8346 37.6749 44.3423 39.1673 42.5013 39.1673H7.5013C5.66035 39.1673 4.16797 37.6749 4.16797 35.834V14.1673Z" fill="#1434CB"/>
<g clip-path="url(#clip0)">
<path d="M29.7886 20.0156C27.5424 20.0156 25.5351 21.148 25.5351 23.2401C25.5351 25.6394 29.0952 25.8051 29.0952 27.0104C29.0952 27.5179 28.4972 27.9722 27.4758 27.9722C26.0263 27.9722 24.943 27.3374 24.943 27.3374L24.4794 29.4486C24.4794 29.4486 25.7274 29.9848 27.3844 29.9848C29.8402 29.9848 31.7726 28.7969 31.7726 26.669C31.7726 24.1337 28.1977 23.9729 28.1977 22.8542C28.1977 22.4566 28.6886 22.021 29.707 22.021C30.8561 22.021 31.7936 22.4827 31.7936 22.4827L32.2473 20.4436C32.2473 20.4436 31.2272 20.0156 29.7886 20.0156V20.0156ZM9.23798 20.1695L9.18359 20.4773C9.18359 20.4773 10.1286 20.6455 10.9797 20.981C12.0756 21.3658 12.1536 21.5898 12.3382 22.2855L14.3494 29.8261H17.0454L21.1988 20.1695H18.5089L15.8401 26.7351L14.7511 21.1698C14.6512 20.5329 14.1454 20.1695 13.5261 20.1695H9.23798V20.1695ZM22.2804 20.1695L20.1703 29.8261H22.7353L24.8379 20.1695H22.2804V20.1695ZM36.5861 20.1695C35.9676 20.1695 35.6399 20.4916 35.3994 21.0544L31.6416 29.8261H34.3314L34.8518 28.3642H38.1288L38.4452 29.8261H40.8186L38.7481 20.1695H36.5861V20.1695ZM36.9359 22.7784L37.7332 26.4021H35.5972L36.9359 22.7784V22.7784Z" fill="white"/>
</g>
<defs>
<clipPath id="clip0">
<rect width="31.6667" height="10" fill="white" transform="translate(9.16797 20)"/>
</clipPath>
</defs>
</svg>
